SplineFontDB: 3.0
FontName: EightBit
FullName: EightBit
FamilyName: EightBit
Weight: Medium
Copyright: 
Version: 
ItalicAngle: 0
UnderlinePosition: -253
UnderlineWidth: 51
Ascent: 768
Descent: 256
InvalidEm: 0
sfntRevision: 0x00010000
LayerCount: 2
Layer: 0 1 "Back" 1
Layer: 1 1 "Fore" 0
XUID: [1021 537 -1501381035 9865439]
StyleMap: 0x0040
FSType: 0
OS2Version: 1
OS2_WeightWidthSlopeOnly: 0
OS2_UseTypoMetrics: 0
CreationTime: 1280473793
ModificationTime: 1528674540
PfmFamily: 17
TTFWeight: 500
TTFWidth: 5
LineGap: 92
VLineGap: 0
Panose: 2 0 6 3 0 0 0 0 0 0
OS2TypoAscent: 768
OS2TypoAOffset: 0
OS2TypoDescent: -256
OS2TypoDOffset: 0
OS2TypoLinegap: 92
OS2WinAscent: 704
OS2WinAOffset: 0
OS2WinDescent: 0
OS2WinDOffset: 0
HheadAscent: 704
HheadAOffset: 0
HheadDescent: 0
HheadDOffset: 0
OS2SubXSize: 665
OS2SubYSize: 716
OS2SubXOff: 0
OS2SubYOff: 143
OS2SupXSize: 665
OS2SupYSize: 716
OS2SupXOff: 0
OS2SupYOff: 491
OS2StrikeYSize: 51
OS2StrikeYPos: 265
OS2Vendor: '2ttf'
OS2CodePages: 00000001.00000000
OS2UnicodeRanges: 00000007.00010002.00000000.00000000
MarkAttachClasses: 1
DEI: 91125
ShortTable: cvt  2
  34
  648
EndShort
ShortTable: maxp 16
  1
  0
  102
  66
  3
  0
  0
  2
  0
  1
  1
  0
  64
  46
  0
  0
EndShort
LangName: 1033
GaspTable: 1 65535 2 0
Encoding: UnicodeBmp
UnicodeInterp: none
NameList: AGL For New Fonts
DisplaySize: -48
AntiAlias: 1
FitToEm: 0
WinInfo: 0 27 9
BeginPrivate: 0
EndPrivate
TeXData: 1 0 0 327680 163840 109226 458752 1048576 109226 783286 444596 497025 792723 393216 433062 380633 303038 157286 324010 404750 52429 2506097 1059062 262144
BeginChars: 65539 102

StartChar: .notdef
Encoding: 65536 -1 0
Width: 374
Flags: W
LayerCount: 2
Fore
SplineSet
34 0 m 1,0,-1
 34 682 l 1,1,-1
 306 682 l 1,2,-1
 306 0 l 1,3,-1
 34 0 l 1,0,-1
68 34 m 1,4,-1
 272 34 l 1,5,-1
 272 648 l 1,6,-1
 68 648 l 1,7,-1
 68 34 l 1,4,-1
EndSplineSet
EndChar

StartChar: exclam
Encoding: 33 33 4
Width: 192
GlyphClass: 2
Flags: W
LayerCount: 2
Fore
SplineSet
0 192 m 1,0,-1
 128 192 l 1,1,-1
 128 128 l 1,2,-1
 0 128 l 1,3,-1
 0 192 l 1,0,-1
128 256 m 1,4,-1
 0 256 l 1,5,-1
 0 512 l 1,6,-1
 128 512 l 1,7,-1
 128 256 l 1,4,-1
EndSplineSet
EndChar

StartChar: quotedbl
Encoding: 34 34 5
Width: 384
GlyphClass: 2
Flags: W
LayerCount: 2
Fore
SplineSet
256 320 m 1,0,-1
 256 384 l 1,1,-1
 192 384 l 1,2,-1
 192 512 l 1,3,-1
 320 512 l 1,4,-1
 320 320 l 1,5,-1
 256 320 l 1,0,-1
64 320 m 1,6,-1
 64 384 l 1,7,-1
 0 384 l 1,8,-1
 0 512 l 1,9,-1
 128 512 l 1,10,-1
 128 320 l 1,11,-1
 64 320 l 1,6,-1
EndSplineSet
EndChar

StartChar: numbersign
Encoding: 35 35 6
Width: 512
GlyphClass: 2
Flags: W
LayerCount: 2
Fore
SplineSet
384 128 m 1,0,-1
 256 128 l 1,1,-1
 256 192 l 1,2,-1
 192 192 l 1,3,-1
 192 128 l 1,4,-1
 64 128 l 1,5,-1
 64 192 l 1,6,-1
 0 192 l 1,7,-1
 0 256 l 1,8,-1
 64 256 l 1,9,-1
 64 384 l 1,10,-1
 0 384 l 1,11,-1
 0 448 l 1,12,-1
 64 448 l 1,13,-1
 64 512 l 1,14,-1
 192 512 l 1,15,-1
 192 448 l 1,16,-1
 256 448 l 1,17,-1
 256 512 l 1,18,-1
 384 512 l 1,19,-1
 384 448 l 1,20,-1
 448 448 l 1,21,-1
 448 384 l 1,22,-1
 384 384 l 1,23,-1
 384 256 l 1,24,-1
 448 256 l 1,25,-1
 448 192 l 1,26,-1
 384 192 l 1,27,-1
 384 128 l 1,0,-1
256 256 m 1,28,-1
 256 384 l 1,29,-1
 192 384 l 1,30,-1
 192 256 l 1,31,-1
 256 256 l 1,28,-1
EndSplineSet
EndChar

StartChar: dollar
Encoding: 36 36 7
Width: 448
GlyphClass: 2
Flags: W
LayerCount: 2
Fore
SplineSet
256 64 m 1,0,-1
 128 64 l 1,1,-1
 128 128 l 1,2,-1
 64 128 l 1,3,-1
 64 192 l 1,4,-1
 0 192 l 1,5,-1
 0 256 l 1,6,-1
 128 256 l 1,7,-1
 128 320 l 1,8,-1
 64 320 l 1,9,-1
 64 384 l 1,10,-1
 0 384 l 1,11,-1
 0 448 l 1,12,-1
 64 448 l 1,13,-1
 64 512 l 1,14,-1
 128 512 l 1,15,-1
 128 576 l 1,16,-1
 256 576 l 1,17,-1
 256 512 l 1,18,-1
 384 512 l 1,19,-1
 384 448 l 1,20,-1
 256 448 l 1,21,-1
 256 384 l 1,22,-1
 320 384 l 1,23,-1
 320 320 l 1,24,-1
 384 320 l 1,25,-1
 384 192 l 1,26,-1
 320 192 l 1,27,-1
 320 128 l 1,28,-1
 256 128 l 1,29,-1
 256 64 l 1,0,-1
EndSplineSet
EndChar

StartChar: percent
Encoding: 37 37 8
Width: 512
GlyphClass: 2
Flags: W
LayerCount: 2
Fore
SplineSet
448 128 m 1,0,-1
 320 128 l 1,1,-1
 320 256 l 1,2,-1
 448 256 l 1,3,-1
 448 128 l 1,0,-1
128 128 m 1,4,-1
 0 128 l 1,5,-1
 0 192 l 1,6,-1
 64 192 l 1,7,-1
 64 256 l 1,8,-1
 128 256 l 1,9,-1
 128 320 l 1,10,-1
 192 320 l 1,11,-1
 192 384 l 1,12,-1
 256 384 l 1,13,-1
 256 448 l 1,14,-1
 320 448 l 1,15,-1
 320 512 l 1,16,-1
 448 512 l 1,17,-1
 448 448 l 1,18,-1
 384 448 l 1,19,-1
 384 384 l 1,20,-1
 320 384 l 1,21,-1
 320 320 l 1,22,-1
 256 320 l 1,23,-1
 256 256 l 1,24,-1
 192 256 l 1,25,-1
 192 192 l 1,26,-1
 128 192 l 1,27,-1
 128 128 l 1,4,-1
128 384 m 1,28,-1
 0 384 l 1,29,-1
 0 512 l 1,30,-1
 128 512 l 1,31,-1
 128 384 l 1,28,-1
EndSplineSet
EndChar

StartChar: ampersand
Encoding: 38 38 9
Width: 448
GlyphClass: 2
Flags: W
LayerCount: 2
Fore
SplineSet
384 128 m 1,0,-1
 64 128 l 1,1,-1
 64 192 l 1,2,-1
 0 192 l 1,3,-1
 0 320 l 1,4,-1
 64 320 l 1,5,-1
 64 384 l 1,6,-1
 0 384 l 1,7,-1
 0 448 l 1,8,-1
 64 448 l 1,9,-1
 64 512 l 1,10,-1
 320 512 l 1,11,-1
 320 448 l 1,12,-1
 384 448 l 1,13,-1
 384 384 l 1,14,-1
 320 384 l 1,15,-1
 320 320 l 1,16,-1
 384 320 l 1,17,-1
 384 256 l 1,18,-1
 320 256 l 1,19,-1
 320 192 l 1,20,-1
 384 192 l 1,21,-1
 384 128 l 1,0,-1
192 192 m 1,22,-1
 192 256 l 1,23,-1
 128 256 l 1,24,-1
 128 192 l 1,25,-1
 192 192 l 1,22,-1
128 384 m 1,26,-1
 256 384 l 1,27,-1
 256 448 l 1,28,-1
 128 448 l 1,29,-1
 128 384 l 1,26,-1
EndSplineSet
EndChar

StartChar: quotesingle
Encoding: 39 39 10
Width: 192
GlyphClass: 2
Flags: W
LayerCount: 2
Fore
SplineSet
64 320 m 1,0,-1
 64 384 l 1,1,-1
 0 384 l 1,2,-1
 0 512 l 1,3,-1
 128 512 l 1,4,-1
 128 320 l 1,5,-1
 64 320 l 1,0,-1
EndSplineSet
EndChar

StartChar: parenleft
Encoding: 40 40 11
Width: 256
GlyphClass: 2
Flags: W
LayerCount: 2
Fore
SplineSet
192 64 m 1,0,-1
 64 64 l 1,1,-1
 64 128 l 1,2,-1
 0 128 l 1,3,-1
 0 512 l 1,4,-1
 64 512 l 1,5,-1
 64 576 l 1,6,-1
 192 576 l 1,7,-1
 192 512 l 1,8,-1
 128 512 l 1,9,-1
 128 128 l 1,10,-1
 192 128 l 1,11,-1
 192 64 l 1,0,-1
EndSplineSet
EndChar

StartChar: parenright
Encoding: 41 41 12
Width: 256
GlyphClass: 2
Flags: W
LayerCount: 2
Fore
SplineSet
128 64 m 1,0,-1
 0 64 l 1,1,-1
 0 128 l 1,2,-1
 64 128 l 1,3,-1
 64 512 l 1,4,-1
 0 512 l 1,5,-1
 0 576 l 1,6,-1
 128 576 l 1,7,-1
 128 512 l 1,8,-1
 192 512 l 1,9,-1
 192 128 l 1,10,-1
 128 128 l 1,11,-1
 128 64 l 1,0,-1
EndSplineSet
EndChar

StartChar: asterisk
Encoding: 42 42 13
Width: 448
GlyphClass: 2
Flags: W
LayerCount: 2
Fore
SplineSet
192 504 m 1,0,-1
 257 504 l 1,1,-1
 257 385 l 1,2,-1
 319 385 l 1,3,-1
 320 448 l 1,4,-1
 384 448 l 1,5,-1
 384 384 l 1,6,-1
 320 384 l 1,7,-1
 320 256 l 1,8,-1
 384 256 l 1,9,-1
 384 192 l 1,10,-1
 320 192 l 1,11,-1
 319 255 l 1,12,-1
 256 255 l 1,13,-1
 256 129 l 1,14,-1
 191 129 l 1,15,-1
 191 255 l 1,16,-1
 129 255 l 1,17,-1
 128 192 l 1,18,-1
 64 192 l 1,19,-1
 64 256 l 1,20,-1
 128 256 l 1,21,-1
 128 384 l 1,22,-1
 64 384 l 1,23,-1
 64 448 l 1,24,-1
 128 448 l 1,25,-1
 129 385 l 1,26,-1
 192 385 l 1,27,-1
 192 504 l 1,0,-1
EndSplineSet
EndChar

StartChar: plus
Encoding: 43 43 14
Width: 448
GlyphClass: 2
Flags: W
LayerCount: 2
Fore
SplineSet
256 192 m 1,0,-1
 128 192 l 1,1,-1
 128 320 l 1,2,-1
 0 320 l 1,3,-1
 0 384 l 1,4,-1
 128 384 l 1,5,-1
 128 512 l 1,6,-1
 256 512 l 1,7,-1
 256 384 l 1,8,-1
 384 384 l 1,9,-1
 384 320 l 1,10,-1
 256 320 l 1,11,-1
 256 192 l 1,0,-1
EndSplineSet
EndChar

StartChar: comma
Encoding: 44 44 15
Width: 192
GlyphClass: 2
Flags: W
LayerCount: 2
Fore
SplineSet
64 64 m 1,0,-1
 64 128 l 1,1,-1
 0 128 l 1,2,-1
 0 256 l 1,3,-1
 128 256 l 1,4,-1
 128 64 l 1,5,-1
 64 64 l 1,0,-1
EndSplineSet
EndChar

StartChar: hyphen
Encoding: 45 45 16
Width: 448
GlyphClass: 2
Flags: W
LayerCount: 2
Fore
SplineSet
0 384 m 1,0,-1
 384 384 l 1,1,-1
 384 320 l 1,2,-1
 0 320 l 1,3,-1
 0 384 l 1,0,-1
EndSplineSet
EndChar

StartChar: period
Encoding: 46 46 17
Width: 192
GlyphClass: 2
Flags: W
LayerCount: 2
Fore
SplineSet
128 128 m 1,0,-1
 0 128 l 1,1,-1
 0 256 l 1,2,-1
 128 256 l 1,3,-1
 128 128 l 1,0,-1
EndSplineSet
EndChar

StartChar: slash
Encoding: 47 47 18
Width: 512
GlyphClass: 2
Flags: W
LayerCount: 2
Fore
SplineSet
0 64 m 1,0,-1
 0 192 l 1,1,-1
 64 192 l 1,2,-1
 64 256 l 1,3,-1
 128 256 l 1,4,-1
 128 320 l 1,5,-1
 192 320 l 1,6,-1
 192 384 l 1,7,-1
 256 384 l 1,8,-1
 256 448 l 1,9,-1
 320 448 l 1,10,-1
 320 512 l 1,11,-1
 384 512 l 1,12,-1
 384 576 l 1,13,-1
 448 576 l 1,14,-1
 448 448 l 1,15,-1
 384 448 l 1,16,-1
 384 384 l 1,17,-1
 320 384 l 1,18,-1
 320 320 l 1,19,-1
 256 320 l 1,20,-1
 256 256 l 1,21,-1
 192 256 l 1,22,-1
 192 192 l 1,23,-1
 128 192 l 1,24,-1
 128 128 l 1,25,-1
 64 128 l 1,26,-1
 64 64 l 1,27,-1
 0 64 l 1,0,-1
EndSplineSet
EndChar

StartChar: zero
Encoding: 48 48 19
Width: 448
GlyphClass: 2
Flags: W
LayerCount: 2
Fore
SplineSet
320 128 m 1,0,-1
 64 128 l 1,1,-1
 64 192 l 1,2,-1
 0 192 l 1,3,-1
 0 448 l 1,4,-1
 64 448 l 1,5,-1
 64 512 l 1,6,-1
 320 512 l 1,7,-1
 320 448 l 1,8,-1
 384 448 l 1,9,-1
 384 192 l 1,10,-1
 320 192 l 1,11,-1
 320 128 l 1,0,-1
128 192 m 1,12,-1
 256 192 l 1,13,-1
 256 448 l 1,14,-1
 128 448 l 1,15,-1
 128 192 l 1,12,-1
EndSplineSet
EndChar

StartChar: one
Encoding: 49 49 20
Width: 320
GlyphClass: 2
Flags: W
LayerCount: 2
Fore
SplineSet
256 128 m 1,0,-1
 0 128 l 1,1,-1
 0 192 l 1,2,-1
 64 192 l 1,3,-1
 64 384 l 1,4,-1
 0 384 l 1,5,-1
 0 448 l 1,6,-1
 64 448 l 1,7,-1
 64 512 l 1,8,-1
 192 512 l 1,9,-1
 192 192 l 1,10,-1
 256 192 l 1,11,-1
 256 128 l 1,0,-1
EndSplineSet
EndChar

StartChar: two
Encoding: 50 50 21
Width: 448
GlyphClass: 2
Flags: W
LayerCount: 2
Fore
SplineSet
128 192 m 1,0,-1
 384 192 l 1,1,-1
 384 128 l 1,2,-1
 0 128 l 1,3,-1
 0 256 l 1,4,-1
 64 256 l 1,5,-1
 64 320 l 1,6,-1
 256 320 l 1,7,-1
 256 448 l 1,8,-1
 128 448 l 1,9,-1
 128 384 l 1,10,-1
 0 384 l 1,11,-1
 0 448 l 1,12,-1
 64 448 l 1,13,-1
 64 512 l 1,14,-1
 320 512 l 1,15,-1
 320 448 l 1,16,-1
 384 448 l 1,17,-1
 384 320 l 1,18,-1
 320 320 l 1,19,-1
 320 256 l 1,20,-1
 128 256 l 1,21,-1
 128 192 l 1,0,-1
EndSplineSet
EndChar

StartChar: three
Encoding: 51 51 22
Width: 448
GlyphClass: 2
Flags: W
LayerCount: 2
Fore
SplineSet
320 128 m 1,0,-1
 64 128 l 1,1,-1
 64 192 l 1,2,-1
 0 192 l 1,3,-1
 0 256 l 1,4,-1
 128 256 l 1,5,-1
 128 192 l 1,6,-1
 256 192 l 1,7,-1
 256 320 l 1,8,-1
 192 320 l 1,9,-1
 192 384 l 1,10,-1
 256 384 l 1,11,-1
 256 448 l 1,12,-1
 128 448 l 1,13,-1
 128 384 l 1,14,-1
 0 384 l 1,15,-1
 0 448 l 1,16,-1
 64 448 l 1,17,-1
 64 512 l 1,18,-1
 320 512 l 1,19,-1
 320 448 l 1,20,-1
 384 448 l 1,21,-1
 384 384 l 1,22,-1
 320 384 l 1,23,-1
 320 320 l 1,24,-1
 384 320 l 1,25,-1
 384 192 l 1,26,-1
 320 192 l 1,27,-1
 320 128 l 1,0,-1
EndSplineSet
EndChar

StartChar: four
Encoding: 52 52 23
Width: 448
GlyphClass: 2
Flags: W
LayerCount: 2
Fore
SplineSet
320 128 m 1,0,-1
 192 128 l 1,1,-1
 192 192 l 1,2,-1
 0 192 l 1,3,-1
 0 320 l 1,4,-1
 64 320 l 1,5,-1
 64 384 l 1,6,-1
 128 384 l 1,7,-1
 128 448 l 1,8,-1
 192 448 l 1,9,-1
 192 512 l 1,10,-1
 320 512 l 1,11,-1
 320 256 l 1,12,-1
 384 256 l 1,13,-1
 384 192 l 1,14,-1
 320 192 l 1,15,-1
 320 128 l 1,0,-1
192 256 m 1,16,-1
 192 320 l 1,17,-1
 128 320 l 1,18,-1
 128 256 l 1,19,-1
 192 256 l 1,16,-1
EndSplineSet
EndChar

StartChar: five
Encoding: 53 53 24
Width: 448
GlyphClass: 2
Flags: W
LayerCount: 2
Fore
SplineSet
320 128 m 1,0,-1
 64 128 l 1,1,-1
 64 192 l 1,2,-1
 0 192 l 1,3,-1
 0 256 l 1,4,-1
 128 256 l 1,5,-1
 128 192 l 1,6,-1
 256 192 l 1,7,-1
 256 320 l 1,8,-1
 0 320 l 1,9,-1
 0 512 l 1,10,-1
 384 512 l 1,11,-1
 384 448 l 1,12,-1
 128 448 l 1,13,-1
 128 384 l 1,14,-1
 320 384 l 1,15,-1
 320 320 l 1,16,-1
 384 320 l 1,17,-1
 384 192 l 1,18,-1
 320 192 l 1,19,-1
 320 128 l 1,0,-1
EndSplineSet
EndChar

StartChar: six
Encoding: 54 54 25
Width: 448
GlyphClass: 2
Flags: W
LayerCount: 2
Fore
SplineSet
320 128 m 1,0,-1
 64 128 l 1,1,-1
 64 192 l 1,2,-1
 0 192 l 1,3,-1
 0 448 l 1,4,-1
 64 448 l 1,5,-1
 64 512 l 1,6,-1
 320 512 l 1,7,-1
 320 448 l 1,8,-1
 128 448 l 1,9,-1
 128 384 l 1,10,-1
 320 384 l 1,11,-1
 320 320 l 1,12,-1
 384 320 l 1,13,-1
 384 192 l 1,14,-1
 320 192 l 1,15,-1
 320 128 l 1,0,-1
128 192 m 1,16,-1
 256 192 l 1,17,-1
 256 320 l 1,18,-1
 128 320 l 1,19,-1
 128 192 l 1,16,-1
EndSplineSet
EndChar

StartChar: seven
Encoding: 55 55 26
Width: 448
GlyphClass: 2
Flags: W
LayerCount: 2
Fore
SplineSet
256 128 m 1,0,-1
 128 128 l 1,1,-1
 128 320 l 1,2,-1
 192 320 l 1,3,-1
 192 384 l 1,4,-1
 256 384 l 1,5,-1
 256 448 l 1,6,-1
 0 448 l 1,7,-1
 0 512 l 1,8,-1
 384 512 l 1,9,-1
 384 384 l 1,10,-1
 320 384 l 1,11,-1
 320 320 l 1,12,-1
 256 320 l 1,13,-1
 256 128 l 1,0,-1
EndSplineSet
EndChar

StartChar: eight
Encoding: 56 56 27
Width: 448
GlyphClass: 2
Flags: W
LayerCount: 2
Fore
SplineSet
320 128 m 1,0,-1
 64 128 l 1,1,-1
 64 192 l 1,2,-1
 0 192 l 1,3,-1
 0 320 l 1,4,-1
 64 320 l 1,5,-1
 64 384 l 1,6,-1
 0 384 l 1,7,-1
 0 448 l 1,8,-1
 64 448 l 1,9,-1
 64 512 l 1,10,-1
 320 512 l 1,11,-1
 320 448 l 1,12,-1
 384 448 l 1,13,-1
 384 384 l 1,14,-1
 320 384 l 1,15,-1
 320 320 l 1,16,-1
 384 320 l 1,17,-1
 384 192 l 1,18,-1
 320 192 l 1,19,-1
 320 128 l 1,0,-1
128 192 m 1,20,-1
 256 192 l 1,21,-1
 256 320 l 1,22,-1
 128 320 l 1,23,-1
 128 192 l 1,20,-1
128 384 m 1,24,-1
 256 384 l 1,25,-1
 256 448 l 1,26,-1
 128 448 l 1,27,-1
 128 384 l 1,24,-1
EndSplineSet
EndChar

StartChar: nine
Encoding: 57 57 28
Width: 448
GlyphClass: 2
Flags: W
LayerCount: 2
Fore
SplineSet
320 128 m 1,0,-1
 64 128 l 1,1,-1
 64 192 l 1,2,-1
 256 192 l 1,3,-1
 256 256 l 1,4,-1
 64 256 l 1,5,-1
 64 320 l 1,6,-1
 0 320 l 1,7,-1
 0 448 l 1,8,-1
 64 448 l 1,9,-1
 64 512 l 1,10,-1
 320 512 l 1,11,-1
 320 448 l 1,12,-1
 384 448 l 1,13,-1
 384 192 l 1,14,-1
 320 192 l 1,15,-1
 320 128 l 1,0,-1
128 320 m 1,16,-1
 256 320 l 1,17,-1
 256 448 l 1,18,-1
 128 448 l 1,19,-1
 128 320 l 1,16,-1
EndSplineSet
EndChar

StartChar: colon
Encoding: 58 58 29
Width: 192
GlyphClass: 2
Flags: W
LayerCount: 2
Fore
SplineSet
128 128 m 1,0,-1
 0 128 l 1,1,-1
 0 256 l 1,2,-1
 128 256 l 1,3,-1
 128 128 l 1,0,-1
128 320 m 1,4,-1
 0 320 l 1,5,-1
 0 448 l 1,6,-1
 128 448 l 1,7,-1
 128 320 l 1,4,-1
EndSplineSet
EndChar

StartChar: semicolon
Encoding: 59 59 30
Width: 192
GlyphClass: 2
Flags: W
LayerCount: 2
Fore
SplineSet
64 64 m 1,0,-1
 64 128 l 1,1,-1
 0 128 l 1,2,-1
 0 256 l 1,3,-1
 128 256 l 1,4,-1
 128 64 l 1,5,-1
 64 64 l 1,0,-1
128 320 m 1,6,-1
 0 320 l 1,7,-1
 0 448 l 1,8,-1
 128 448 l 1,9,-1
 128 320 l 1,6,-1
EndSplineSet
EndChar

StartChar: less
Encoding: 60 60 31
Width: 384
GlyphClass: 2
Flags: W
LayerCount: 2
Fore
SplineSet
320 128 m 1,0,-1
 192 128 l 1,1,-1
 192 192 l 1,2,-1
 128 192 l 1,3,-1
 128 256 l 1,4,-1
 64 256 l 1,5,-1
 64 320 l 1,6,-1
 0 320 l 1,7,-1
 0 384 l 1,8,-1
 64 384 l 1,9,-1
 64 448 l 1,10,-1
 128 448 l 1,11,-1
 128 512 l 1,12,-1
 192 512 l 1,13,-1
 192 576 l 1,14,-1
 320 576 l 1,15,-1
 320 512 l 1,16,-1
 256 512 l 1,17,-1
 256 448 l 1,18,-1
 192 448 l 1,19,-1
 192 384 l 1,20,-1
 128 384 l 1,21,-1
 128 320 l 1,22,-1
 192 320 l 1,23,-1
 192 256 l 1,24,-1
 256 256 l 1,25,-1
 256 192 l 1,26,-1
 320 192 l 1,27,-1
 320 128 l 1,0,-1
EndSplineSet
EndChar

StartChar: equal
Encoding: 61 61 32
Width: 448
GlyphClass: 2
Flags: W
LayerCount: 2
Fore
SplineSet
0 320 m 1,0,-1
 384 320 l 1,1,-1
 384 256 l 1,2,-1
 0 256 l 1,3,-1
 0 320 l 1,0,-1
0 448 m 1,4,-1
 384 448 l 1,5,-1
 384 384 l 1,6,-1
 0 384 l 1,7,-1
 0 448 l 1,4,-1
EndSplineSet
EndChar

StartChar: greater
Encoding: 62 62 33
Width: 384
GlyphClass: 2
Flags: W
LayerCount: 2
Fore
SplineSet
128 128 m 1,0,-1
 0 128 l 1,1,-1
 0 192 l 1,2,-1
 64 192 l 1,3,-1
 64 256 l 1,4,-1
 128 256 l 1,5,-1
 128 320 l 1,6,-1
 192 320 l 1,7,-1
 192 384 l 1,8,-1
 128 384 l 1,9,-1
 128 448 l 1,10,-1
 64 448 l 1,11,-1
 64 512 l 1,12,-1
 0 512 l 1,13,-1
 0 576 l 1,14,-1
 128 576 l 1,15,-1
 128 512 l 1,16,-1
 192 512 l 1,17,-1
 192 448 l 1,18,-1
 256 448 l 1,19,-1
 256 384 l 1,20,-1
 320 384 l 1,21,-1
 320 320 l 1,22,-1
 256 320 l 1,23,-1
 256 256 l 1,24,-1
 192 256 l 1,25,-1
 192 192 l 1,26,-1
 128 192 l 1,27,-1
 128 128 l 1,0,-1
EndSplineSet
EndChar

StartChar: question
Encoding: 63 63 34
Width: 448
GlyphClass: 2
Flags: W
LayerCount: 2
Fore
SplineSet
128 192 m 1,0,-1
 256 192 l 1,1,-1
 256 128 l 1,2,-1
 128 128 l 1,3,-1
 128 192 l 1,0,-1
256 256 m 1,4,-1
 128 256 l 1,5,-1
 128 320 l 1,6,-1
 192 320 l 1,7,-1
 192 384 l 1,8,-1
 256 384 l 1,9,-1
 256 448 l 1,10,-1
 128 448 l 1,11,-1
 128 384 l 1,12,-1
 0 384 l 1,13,-1
 0 448 l 1,14,-1
 64 448 l 1,15,-1
 64 512 l 1,16,-1
 320 512 l 1,17,-1
 320 448 l 1,18,-1
 384 448 l 1,19,-1
 384 384 l 1,20,-1
 320 384 l 1,21,-1
 320 320 l 1,22,-1
 256 320 l 1,23,-1
 256 256 l 1,4,-1
EndSplineSet
EndChar

StartChar: at
Encoding: 64 64 35
Width: 576
GlyphClass: 2
Flags: W
LayerCount: 2
Fore
SplineSet
448 128 m 1,0,-1
 64 128 l 1,1,-1
 64 192 l 1,2,-1
 0 192 l 1,3,-1
 0 576 l 1,4,-1
 64 576 l 1,5,-1
 64 640 l 1,6,-1
 448 640 l 1,7,-1
 448 576 l 1,8,-1
 512 576 l 1,9,-1
 512 512 l 1,10,-1
 384 512 l 1,11,-1
 384 576 l 1,12,-1
 128 576 l 1,13,-1
 128 448 l 1,14,-1
 192 448 l 1,15,-1
 192 512 l 1,16,-1
 383 512 l 1,17,-1
 384 448 l 1,18,-1
 512 448 l 1,19,-1
 512 192 l 1,20,-1
 448 192 l 1,21,-1
 448 128 l 1,0,-1
128 192 m 1,22,-1
 384 192 l 1,23,-1
 384 256 l 1,24,-1
 192 256 l 1,25,-1
 192 320 l 1,26,-1
 128 320 l 1,27,-1
 128 192 l 1,22,-1
320 320 m 1,28,-1
 320 448 l 1,29,-1
 256 448 l 1,30,-1
 256 320 l 1,31,-1
 320 320 l 1,28,-1
EndSplineSet
EndChar

StartChar: A
Encoding: 65 65 36
Width: 448
GlyphClass: 2
Flags: W
LayerCount: 2
Fore
SplineSet
384 128 m 1,0,-1
 256 128 l 1,1,-1
 256 256 l 1,2,-1
 128 256 l 1,3,-1
 128 128 l 1,4,-1
 0 128 l 1,5,-1
 0 448 l 1,6,-1
 64 448 l 1,7,-1
 64 512 l 1,8,-1
 320 512 l 1,9,-1
 320 448 l 1,10,-1
 384 448 l 1,11,-1
 384 128 l 1,0,-1
128 320 m 1,12,-1
 256 320 l 1,13,-1
 256 448 l 1,14,-1
 128 448 l 1,15,-1
 128 320 l 1,12,-1
EndSplineSet
EndChar

StartChar: B
Encoding: 66 66 37
Width: 448
GlyphClass: 2
Flags: W
LayerCount: 2
Fore
SplineSet
320 128 m 1,0,-1
 0 128 l 1,1,-1
 0 512 l 1,2,-1
 320 512 l 1,3,-1
 320 448 l 1,4,-1
 384 448 l 1,5,-1
 384 384 l 1,6,-1
 320 384 l 1,7,-1
 320 320 l 1,8,-1
 384 320 l 1,9,-1
 384 192 l 1,10,-1
 320 192 l 1,11,-1
 320 128 l 1,0,-1
128 192 m 1,12,-1
 256 192 l 1,13,-1
 256 320 l 1,14,-1
 128 320 l 1,15,-1
 128 192 l 1,12,-1
128 384 m 1,16,-1
 256 384 l 1,17,-1
 256 448 l 1,18,-1
 128 448 l 1,19,-1
 128 384 l 1,16,-1
EndSplineSet
EndChar

StartChar: C
Encoding: 67 67 38
Width: 448
GlyphClass: 2
Flags: W
LayerCount: 2
Fore
SplineSet
320 128 m 1,0,-1
 64 128 l 1,1,-1
 64 192 l 1,2,-1
 0 192 l 1,3,-1
 0 448 l 1,4,-1
 64 448 l 1,5,-1
 64 512 l 1,6,-1
 320 512 l 1,7,-1
 320 448 l 1,8,-1
 384 448 l 1,9,-1
 384 384 l 1,10,-1
 256 384 l 1,11,-1
 256 448 l 1,12,-1
 128 448 l 1,13,-1
 128 192 l 1,14,-1
 256 192 l 1,15,-1
 256 256 l 1,16,-1
 384 256 l 1,17,-1
 384 192 l 1,18,-1
 320 192 l 1,19,-1
 320 128 l 1,0,-1
EndSplineSet
EndChar

StartChar: D
Encoding: 68 68 39
Width: 448
GlyphClass: 2
Flags: W
LayerCount: 2
Fore
SplineSet
320 128 m 1,0,-1
 0 128 l 1,1,-1
 0 512 l 1,2,-1
 320 512 l 1,3,-1
 320 448 l 1,4,-1
 384 448 l 1,5,-1
 384 192 l 1,6,-1
 320 192 l 1,7,-1
 320 128 l 1,0,-1
128 192 m 1,8,-1
 256 192 l 1,9,-1
 256 448 l 1,10,-1
 128 448 l 1,11,-1
 128 192 l 1,8,-1
EndSplineSet
EndChar

StartChar: E
Encoding: 69 69 40
Width: 448
GlyphClass: 2
Flags: W
LayerCount: 2
Fore
SplineSet
128 192 m 1,0,-1
 384 192 l 1,1,-1
 384 128 l 1,2,-1
 0 128 l 1,3,-1
 0 512 l 1,4,-1
 384 512 l 1,5,-1
 384 448 l 1,6,-1
 128 448 l 1,7,-1
 128 384 l 1,8,-1
 256 384 l 1,9,-1
 256 320 l 1,10,-1
 128 320 l 1,11,-1
 128 192 l 1,0,-1
EndSplineSet
EndChar

StartChar: F
Encoding: 70 70 41
Width: 448
GlyphClass: 2
Flags: W
LayerCount: 2
Fore
SplineSet
128 128 m 1,0,-1
 0 128 l 1,1,-1
 0 512 l 1,2,-1
 384 512 l 1,3,-1
 384 448 l 1,4,-1
 128 448 l 1,5,-1
 128 384 l 1,6,-1
 256 384 l 1,7,-1
 256 320 l 1,8,-1
 128 320 l 1,9,-1
 128 128 l 1,0,-1
EndSplineSet
EndChar

StartChar: G
Encoding: 71 71 42
Width: 448
GlyphClass: 2
Flags: W
LayerCount: 2
Fore
SplineSet
320 128 m 1,0,-1
 64 128 l 1,1,-1
 64 192 l 1,2,-1
 0 192 l 1,3,-1
 0 448 l 1,4,-1
 64 448 l 1,5,-1
 64 512 l 1,6,-1
 320 512 l 1,7,-1
 320 448 l 1,8,-1
 384 448 l 1,9,-1
 384 384 l 1,10,-1
 256 384 l 1,11,-1
 256 448 l 1,12,-1
 128 448 l 1,13,-1
 128 192 l 1,14,-1
 256 192 l 1,15,-1
 256 256 l 1,16,-1
 192 256 l 1,17,-1
 192 320 l 1,18,-1
 384 320 l 1,19,-1
 384 192 l 1,20,-1
 320 192 l 1,21,-1
 320 128 l 1,0,-1
EndSplineSet
EndChar

StartChar: H
Encoding: 72 72 43
Width: 448
GlyphClass: 2
Flags: W
LayerCount: 2
Fore
SplineSet
384 128 m 1,0,-1
 256 128 l 1,1,-1
 256 320 l 1,2,-1
 128 320 l 1,3,-1
 128 128 l 1,4,-1
 0 128 l 1,5,-1
 0 512 l 1,6,-1
 128 512 l 1,7,-1
 128 384 l 1,8,-1
 256 384 l 1,9,-1
 256 512 l 1,10,-1
 384 512 l 1,11,-1
 384 128 l 1,0,-1
EndSplineSet
EndChar

StartChar: I
Encoding: 73 73 44
Width: 320
GlyphClass: 2
Flags: W
LayerCount: 2
Fore
SplineSet
256 128 m 1,0,-1
 0 128 l 1,1,-1
 0 192 l 1,2,-1
 64 192 l 1,3,-1
 64 448 l 1,4,-1
 0 448 l 1,5,-1
 0 512 l 1,6,-1
 256 512 l 1,7,-1
 256 448 l 1,8,-1
 192 448 l 1,9,-1
 192 192 l 1,10,-1
 256 192 l 1,11,-1
 256 128 l 1,0,-1
EndSplineSet
EndChar

StartChar: J
Encoding: 74 74 45
Width: 448
GlyphClass: 2
Flags: W
LayerCount: 2
Fore
SplineSet
320 128 m 1,0,-1
 64 128 l 1,1,-1
 64 192 l 1,2,-1
 0 192 l 1,3,-1
 0 256 l 1,4,-1
 128 256 l 1,5,-1
 128 192 l 1,6,-1
 256 192 l 1,7,-1
 256 512 l 1,8,-1
 384 512 l 1,9,-1
 384 192 l 1,10,-1
 320 192 l 1,11,-1
 320 128 l 1,0,-1
EndSplineSet
EndChar

StartChar: K
Encoding: 75 75 46
Width: 448
GlyphClass: 2
Flags: W
LayerCount: 2
Fore
SplineSet
384 128 m 1,0,-1
 256 128 l 1,1,-1
 256 192 l 1,2,-1
 192 192 l 1,3,-1
 192 256 l 1,4,-1
 128 256 l 1,5,-1
 128 128 l 1,6,-1
 0 128 l 1,7,-1
 0 512 l 1,8,-1
 128 512 l 1,9,-1
 128 384 l 1,10,-1
 192 384 l 1,11,-1
 192 448 l 1,12,-1
 256 448 l 1,13,-1
 256 512 l 1,14,-1
 384 512 l 1,15,-1
 384 448 l 1,16,-1
 320 448 l 1,17,-1
 320 384 l 1,18,-1
 256 384 l 1,19,-1
 256 256 l 1,20,-1
 320 256 l 1,21,-1
 320 192 l 1,22,-1
 384 192 l 1,23,-1
 384 128 l 1,0,-1
EndSplineSet
EndChar

StartChar: L
Encoding: 76 76 47
Width: 448
GlyphClass: 2
Flags: W
LayerCount: 2
Fore
SplineSet
128 192 m 1,0,-1
 384 192 l 1,1,-1
 384 128 l 1,2,-1
 0 128 l 1,3,-1
 0 512 l 1,4,-1
 128 512 l 1,5,-1
 128 192 l 1,0,-1
EndSplineSet
EndChar

StartChar: M
Encoding: 77 77 48
Width: 576
GlyphClass: 2
Flags: W
LayerCount: 2
Fore
SplineSet
512 128 m 1,0,-1
 384 128 l 1,1,-1
 384 320 l 1,2,-1
 320 320 l 1,3,-1
 320 256 l 1,4,-1
 192 256 l 1,5,-1
 192 320 l 1,6,-1
 128 320 l 1,7,-1
 128 128 l 1,8,-1
 0 128 l 1,9,-1
 0 512 l 1,10,-1
 128 512 l 1,11,-1
 128 448 l 1,12,-1
 192 448 l 1,13,-1
 192 384 l 1,14,-1
 320 384 l 1,15,-1
 320 448 l 1,16,-1
 384 448 l 1,17,-1
 384 512 l 1,18,-1
 512 512 l 1,19,-1
 512 128 l 1,0,-1
EndSplineSet
EndChar

StartChar: N
Encoding: 78 78 49
Width: 448
GlyphClass: 2
Flags: W
LayerCount: 2
Fore
SplineSet
384 128 m 1,0,-1
 256 128 l 1,1,-1
 256 256 l 1,2,-1
 192 256 l 1,3,-1
 192 320 l 1,4,-1
 128 320 l 1,5,-1
 128 128 l 1,6,-1
 0 128 l 1,7,-1
 0 512 l 1,8,-1
 128 512 l 1,9,-1
 128 448 l 1,10,-1
 192 448 l 1,11,-1
 192 384 l 1,12,-1
 256 384 l 1,13,-1
 256 512 l 1,14,-1
 384 512 l 1,15,-1
 384 128 l 1,0,-1
EndSplineSet
EndChar

StartChar: O
Encoding: 79 79 50
Width: 448
GlyphClass: 2
Flags: W
LayerCount: 2
Fore
SplineSet
320 128 m 1,0,-1
 64 128 l 1,1,-1
 64 192 l 1,2,-1
 0 192 l 1,3,-1
 0 448 l 1,4,-1
 64 448 l 1,5,-1
 64 512 l 1,6,-1
 320 512 l 1,7,-1
 320 448 l 1,8,-1
 384 448 l 1,9,-1
 384 192 l 1,10,-1
 320 192 l 1,11,-1
 320 128 l 1,0,-1
128 192 m 1,12,-1
 256 192 l 1,13,-1
 256 448 l 1,14,-1
 128 448 l 1,15,-1
 128 192 l 1,12,-1
EndSplineSet
EndChar

StartChar: P
Encoding: 80 80 51
Width: 448
GlyphClass: 2
Flags: W
LayerCount: 2
Fore
SplineSet
128 128 m 1,0,-1
 0 128 l 1,1,-1
 0 512 l 1,2,-1
 320 512 l 1,3,-1
 320 448 l 1,4,-1
 384 448 l 1,5,-1
 384 320 l 1,6,-1
 320 320 l 1,7,-1
 320 256 l 1,8,-1
 128 256 l 1,9,-1
 128 128 l 1,0,-1
128 320 m 1,10,-1
 256 320 l 1,11,-1
 256 448 l 1,12,-1
 128 448 l 1,13,-1
 128 320 l 1,10,-1
EndSplineSet
EndChar

StartChar: Q
Encoding: 81 81 52
Width: 448
GlyphClass: 2
Flags: W
LayerCount: 2
Fore
SplineSet
384 128 m 1,0,-1
 256 128 l 1,1,-1
 256 192 l 1,2,-1
 192 193 l 1,3,-1
 192 256 l 1,4,-1
 256 256 l 1,5,-1
 256 448 l 1,6,-1
 128 448 l 1,7,-1
 128 192 l 1,8,-1
 192 192 l 1,9,-1
 192 128 l 1,10,-1
 64 128 l 1,11,-1
 64 192 l 1,12,-1
 0 192 l 1,13,-1
 0 448 l 1,14,-1
 64 448 l 1,15,-1
 64 512 l 1,16,-1
 320 512 l 1,17,-1
 320 448 l 1,18,-1
 384 448 l 1,19,-1
 384 256 l 1,20,-1
 320 256 l 1,21,-1
 320 192 l 1,22,-1
 384 192 l 1,23,-1
 384 128 l 1,0,-1
EndSplineSet
EndChar

StartChar: R
Encoding: 82 82 53
Width: 448
GlyphClass: 2
Flags: W
LayerCount: 2
Fore
SplineSet
384 128 m 1,0,-1
 256 128 l 1,1,-1
 256 192 l 1,2,-1
 192 192 l 1,3,-1
 192 256 l 1,4,-1
 128 256 l 1,5,-1
 128 128 l 1,6,-1
 0 128 l 1,7,-1
 0 512 l 1,8,-1
 320 512 l 1,9,-1
 320 448 l 1,10,-1
 384 448 l 1,11,-1
 384 320 l 1,12,-1
 320 320 l 1,13,-1
 320 192 l 1,14,-1
 384 192 l 1,15,-1
 384 128 l 1,0,-1
128 320 m 1,16,-1
 256 320 l 1,17,-1
 256 448 l 1,18,-1
 128 448 l 1,19,-1
 128 320 l 1,16,-1
EndSplineSet
EndChar

StartChar: S
Encoding: 83 83 54
Width: 448
GlyphClass: 2
Flags: W
LayerCount: 2
Fore
SplineSet
320 128 m 1,0,-1
 64 128 l 1,1,-1
 64 192 l 1,2,-1
 0 192 l 1,3,-1
 0 256 l 1,4,-1
 128 256 l 1,5,-1
 128 192 l 1,6,-1
 256 192 l 1,7,-1
 256 320 l 1,8,-1
 64 320 l 1,9,-1
 64 384 l 1,10,-1
 0 384 l 1,11,-1
 0 448 l 1,12,-1
 64 448 l 1,13,-1
 64 512 l 1,14,-1
 320 512 l 1,15,-1
 320 448 l 1,16,-1
 128 448 l 1,17,-1
 128 384 l 1,18,-1
 320 384 l 1,19,-1
 320 320 l 1,20,-1
 384 320 l 1,21,-1
 384 192 l 1,22,-1
 320 192 l 1,23,-1
 320 128 l 1,0,-1
EndSplineSet
EndChar

StartChar: T
Encoding: 84 84 55
Width: 448
GlyphClass: 2
Flags: W
LayerCount: 2
Fore
SplineSet
256 128 m 1,0,-1
 128 128 l 1,1,-1
 128 448 l 1,2,-1
 0 448 l 1,3,-1
 0 512 l 1,4,-1
 384 512 l 1,5,-1
 384 448 l 1,6,-1
 256 448 l 1,7,-1
 256 128 l 1,0,-1
EndSplineSet
EndChar

StartChar: U
Encoding: 85 85 56
Width: 448
GlyphClass: 2
Flags: W
LayerCount: 2
Fore
SplineSet
320 128 m 1,0,-1
 64 128 l 1,1,-1
 64 192 l 1,2,-1
 0 192 l 1,3,-1
 0 512 l 1,4,-1
 128 512 l 1,5,-1
 128 192 l 1,6,-1
 256 192 l 1,7,-1
 256 512 l 1,8,-1
 384 512 l 1,9,-1
 384 192 l 1,10,-1
 320 192 l 1,11,-1
 320 128 l 1,0,-1
EndSplineSet
EndChar

StartChar: V
Encoding: 86 86 57
Width: 448
GlyphClass: 2
Flags: W
LayerCount: 2
Fore
SplineSet
256 128 m 1,0,-1
 128 128 l 1,1,-1
 128 192 l 1,2,-1
 64 192 l 1,3,-1
 64 256 l 1,4,-1
 0 256 l 1,5,-1
 0 512 l 1,6,-1
 128 512 l 1,7,-1
 128 256 l 1,8,-1
 256 256 l 1,9,-1
 256 512 l 1,10,-1
 384 512 l 1,11,-1
 384 256 l 1,12,-1
 320 256 l 1,13,-1
 320 192 l 1,14,-1
 256 192 l 1,15,-1
 256 128 l 1,0,-1
EndSplineSet
EndChar

StartChar: W
Encoding: 87 87 58
Width: 576
GlyphClass: 2
Flags: W
LayerCount: 2
Fore
SplineSet
448 128 m 1,0,-1
 64 128 l 1,1,-1
 64 192 l 1,2,-1
 0 192 l 1,3,-1
 0 512 l 1,4,-1
 128 512 l 1,5,-1
 128 192 l 1,6,-1
 192 192 l 1,7,-1
 192 448 l 1,8,-1
 320 448 l 1,9,-1
 320 192 l 1,10,-1
 384 192 l 1,11,-1
 384 512 l 1,12,-1
 512 512 l 1,13,-1
 512 192 l 1,14,-1
 448 192 l 1,15,-1
 448 128 l 1,0,-1
EndSplineSet
EndChar

StartChar: X
Encoding: 88 88 59
Width: 448
GlyphClass: 2
Flags: W
LayerCount: 2
Fore
SplineSet
384 128 m 1,0,-1
 256 128 l 1,1,-1
 256 192 l 1,2,-1
 128 192 l 1,3,-1
 128 128 l 1,4,-1
 0 128 l 1,5,-1
 0 192 l 1,6,-1
 64 192 l 1,7,-1
 64 256 l 1,8,-1
 128 256 l 1,9,-1
 128 384 l 1,10,-1
 64 384 l 1,11,-1
 64 448 l 1,12,-1
 0 448 l 1,13,-1
 0 512 l 1,14,-1
 128 512 l 1,15,-1
 128 448 l 1,16,-1
 256 448 l 1,17,-1
 256 512 l 1,18,-1
 384 512 l 1,19,-1
 384 448 l 1,20,-1
 320 448 l 1,21,-1
 320 384 l 1,22,-1
 256 384 l 1,23,-1
 256 256 l 1,24,-1
 320 256 l 1,25,-1
 320 192 l 1,26,-1
 384 192 l 1,27,-1
 384 128 l 1,0,-1
EndSplineSet
EndChar

StartChar: Y
Encoding: 89 89 60
Width: 448
GlyphClass: 2
Flags: W
LayerCount: 2
Fore
SplineSet
256 128 m 1,0,-1
 128 128 l 1,1,-1
 128 256 l 1,2,-1
 64 256 l 1,3,-1
 64 320 l 1,4,-1
 0 320 l 1,5,-1
 0 512 l 1,6,-1
 128 512 l 1,7,-1
 128 320 l 1,8,-1
 256 320 l 1,9,-1
 256 512 l 1,10,-1
 384 512 l 1,11,-1
 384 320 l 1,12,-1
 320 320 l 1,13,-1
 320 256 l 1,14,-1
 256 256 l 1,15,-1
 256 128 l 1,0,-1
EndSplineSet
EndChar

StartChar: Z
Encoding: 90 90 61
Width: 448
GlyphClass: 2
Flags: W
LayerCount: 2
Fore
SplineSet
192 192 m 1,0,-1
 384 192 l 1,1,-1
 384 128 l 1,2,-1
 0 128 l 1,3,-1
 0 256 l 1,4,-1
 64 256 l 1,5,-1
 64 320 l 1,6,-1
 128 320 l 1,7,-1
 128 384 l 1,8,-1
 192 384 l 1,9,-1
 192 448 l 1,10,-1
 0 448 l 1,11,-1
 0 512 l 1,12,-1
 384 512 l 1,13,-1
 384 384 l 1,14,-1
 320 384 l 1,15,-1
 320 320 l 1,16,-1
 256 320 l 1,17,-1
 256 256 l 1,18,-1
 192 256 l 1,19,-1
 192 192 l 1,0,-1
EndSplineSet
EndChar

StartChar: bracketleft
Encoding: 91 91 62
Width: 320
GlyphClass: 2
Flags: W
LayerCount: 2
Fore
SplineSet
128 128 m 1,0,-1
 256 128 l 1,1,-1
 256 64 l 1,2,-1
 0 64 l 1,3,-1
 0 576 l 1,4,-1
 256 576 l 1,5,-1
 256 512 l 1,6,-1
 128 512 l 1,7,-1
 128 128 l 1,0,-1
EndSplineSet
EndChar

StartChar: backslash
Encoding: 92 92 63
Width: 512
GlyphClass: 2
Flags: W
LayerCount: 2
Fore
SplineSet
384 64 m 1,0,-1
 384 128 l 1,1,-1
 320 128 l 1,2,-1
 320 192 l 1,3,-1
 256 192 l 1,4,-1
 256 256 l 1,5,-1
 192 256 l 1,6,-1
 192 320 l 1,7,-1
 128 320 l 1,8,-1
 128 384 l 1,9,-1
 64 384 l 1,10,-1
 64 448 l 1,11,-1
 0 448 l 1,12,-1
 0 576 l 1,13,-1
 64 576 l 1,14,-1
 64 512 l 1,15,-1
 128 512 l 1,16,-1
 128 448 l 1,17,-1
 192 448 l 1,18,-1
 192 384 l 1,19,-1
 256 384 l 1,20,-1
 256 320 l 1,21,-1
 320 320 l 1,22,-1
 320 256 l 1,23,-1
 384 256 l 1,24,-1
 384 192 l 1,25,-1
 448 192 l 1,26,-1
 448 64 l 1,27,-1
 384 64 l 1,0,-1
EndSplineSet
EndChar

StartChar: bracketright
Encoding: 93 93 64
Width: 320
GlyphClass: 2
Flags: W
LayerCount: 2
Fore
SplineSet
256 64 m 1,0,-1
 0 64 l 1,1,-1
 0 128 l 1,2,-1
 128 128 l 1,3,-1
 128 512 l 1,4,-1
 0 512 l 1,5,-1
 0 576 l 1,6,-1
 256 576 l 1,7,-1
 256 64 l 1,0,-1
EndSplineSet
EndChar

StartChar: asciicircum
Encoding: 94 94 65
Width: 448
GlyphClass: 2
Flags: W
LayerCount: 2
Fore
SplineSet
384 320 m 1,0,-1
 256 320 l 1,1,-1
 256 384 l 1,2,-1
 128 384 l 1,3,-1
 128 320 l 1,4,-1
 0 320 l 1,5,-1
 0 384 l 1,6,-1
 64 384 l 1,7,-1
 64 448 l 1,8,-1
 128 448 l 1,9,-1
 128 512 l 1,10,-1
 256 512 l 1,11,-1
 256 448 l 1,12,-1
 320 448 l 1,13,-1
 320 384 l 1,14,-1
 384 384 l 1,15,-1
 384 320 l 1,0,-1
EndSplineSet
EndChar

StartChar: underscore
Encoding: 95 95 66
Width: 448
GlyphClass: 2
Flags: W
LayerCount: 2
Fore
SplineSet
0 128 m 1,0,-1
 384 128 l 1,1,-1
 384 64 l 1,2,-1
 0 64 l 1,3,-1
 0 128 l 1,0,-1
EndSplineSet
EndChar

StartChar: grave
Encoding: 96 96 67
Width: 192
GlyphClass: 2
Flags: W
LayerCount: 2
Fore
SplineSet
64 320 m 1,0,-1
 64 384 l 1,1,-1
 0 384 l 1,2,-1
 0 512 l 1,3,-1
 128 512 l 1,4,-1
 128 320 l 1,5,-1
 64 320 l 1,0,-1
EndSplineSet
EndChar

StartChar: a
Encoding: 97 97 68
Width: 448
GlyphClass: 2
Flags: W
LayerCount: 2
Fore
SplineSet
384 128 m 1,0,-1
 64 128 l 1,1,-1
 64 192 l 1,2,-1
 0 192 l 1,3,-1
 0 256 l 1,4,-1
 64 256 l 1,5,-1
 64 320 l 1,6,-1
 256 320 l 1,7,-1
 256 384 l 1,8,-1
 64 384 l 1,9,-1
 64 448 l 1,10,-1
 320 448 l 1,11,-1
 320 384 l 1,12,-1
 384 384 l 1,13,-1
 384 128 l 1,0,-1
128 192 m 1,14,-1
 256 192 l 1,15,-1
 256 256 l 1,16,-1
 128 256 l 1,17,-1
 128 192 l 1,14,-1
EndSplineSet
EndChar

StartChar: b
Encoding: 98 98 69
Width: 448
GlyphClass: 2
Flags: W
LayerCount: 2
Fore
SplineSet
320 128 m 1,0,-1
 0 128 l 1,1,-1
 0 512 l 1,2,-1
 128 512 l 1,3,-1
 128 448 l 1,4,-1
 320 448 l 1,5,-1
 320 384 l 1,6,-1
 384 384 l 1,7,-1
 384 192 l 1,8,-1
 320 192 l 1,9,-1
 320 128 l 1,0,-1
128 192 m 1,10,-1
 256 192 l 1,11,-1
 256 384 l 1,12,-1
 128 384 l 1,13,-1
 128 192 l 1,10,-1
EndSplineSet
EndChar

StartChar: c
Encoding: 99 99 70
Width: 448
GlyphClass: 2
Flags: W
LayerCount: 2
Fore
SplineSet
320 128 m 1,0,-1
 64 128 l 1,1,-1
 64 192 l 1,2,-1
 0 192 l 1,3,-1
 0 384 l 1,4,-1
 64 384 l 1,5,-1
 64 448 l 1,6,-1
 320 448 l 1,7,-1
 320 384 l 1,8,-1
 384 384 l 1,9,-1
 384 320 l 1,10,-1
 256 320 l 1,11,-1
 256 384 l 1,12,-1
 128 384 l 1,13,-1
 128 192 l 1,14,-1
 256 192 l 1,15,-1
 256 256 l 1,16,-1
 384 256 l 1,17,-1
 384 192 l 1,18,-1
 320 192 l 1,19,-1
 320 128 l 1,0,-1
EndSplineSet
EndChar

StartChar: d
Encoding: 100 100 71
Width: 448
GlyphClass: 2
Flags: W
LayerCount: 2
Fore
SplineSet
384 128 m 1,0,-1
 64 128 l 1,1,-1
 64 192 l 1,2,-1
 0 192 l 1,3,-1
 0 384 l 1,4,-1
 64 384 l 1,5,-1
 64 448 l 1,6,-1
 256 448 l 1,7,-1
 256 512 l 1,8,-1
 384 512 l 1,9,-1
 384 128 l 1,0,-1
128 192 m 1,10,-1
 256 192 l 1,11,-1
 256 384 l 1,12,-1
 128 384 l 1,13,-1
 128 192 l 1,10,-1
EndSplineSet
EndChar

StartChar: e
Encoding: 101 101 72
Width: 448
GlyphClass: 2
Flags: W
LayerCount: 2
Fore
SplineSet
128 192 m 1,0,-1
 320 192 l 1,1,-1
 320 128 l 1,2,-1
 64 128 l 1,3,-1
 64 192 l 1,4,-1
 0 192 l 1,5,-1
 0 384 l 1,6,-1
 64 384 l 1,7,-1
 64 448 l 1,8,-1
 320 448 l 1,9,-1
 320 384 l 1,10,-1
 384 384 l 1,11,-1
 384 320 l 1,12,-1
 320 320 l 1,13,-1
 320 256 l 1,14,-1
 128 256 l 1,15,-1
 128 192 l 1,0,-1
128 320 m 1,16,-1
 256 320 l 1,17,-1
 256 384 l 1,18,-1
 128 384 l 1,19,-1
 128 320 l 1,16,-1
EndSplineSet
EndChar

StartChar: f
Encoding: 102 102 73
Width: 320
GlyphClass: 2
Flags: W
LayerCount: 2
Fore
SplineSet
128 128 m 1,0,-1
 0 128 l 1,1,-1
 0 448 l 1,2,-1
 64 448 l 1,3,-1
 64 512 l 1,4,-1
 256 512 l 1,5,-1
 256 448 l 1,6,-1
 128 448 l 1,7,-1
 128 384 l 1,8,-1
 256 384 l 1,9,-1
 256 320 l 1,10,-1
 128 320 l 1,11,-1
 128 128 l 1,0,-1
EndSplineSet
EndChar

StartChar: g
Encoding: 103 103 74
Width: 448
GlyphClass: 2
Flags: W
LayerCount: 2
Fore
SplineSet
320 64 m 1,0,-1
 64 64 l 1,1,-1
 64 128 l 1,2,-1
 256 128 l 1,3,-1
 256 192 l 1,4,-1
 64 192 l 1,5,-1
 64 256 l 1,6,-1
 0 256 l 1,7,-1
 0 384 l 1,8,-1
 64 384 l 1,9,-1
 64 448 l 1,10,-1
 384 448 l 1,11,-1
 384 128 l 1,12,-1
 320 128 l 1,13,-1
 320 64 l 1,0,-1
128 256 m 1,14,-1
 256 256 l 1,15,-1
 256 384 l 1,16,-1
 128 384 l 1,17,-1
 128 256 l 1,14,-1
EndSplineSet
EndChar

StartChar: h
Encoding: 104 104 75
Width: 448
GlyphClass: 2
Flags: W
LayerCount: 2
Fore
SplineSet
384 128 m 1,0,-1
 256 128 l 1,1,-1
 256 384 l 1,2,-1
 128 384 l 1,3,-1
 128 128 l 1,4,-1
 0 128 l 1,5,-1
 0 512 l 1,6,-1
 128 512 l 1,7,-1
 128 448 l 1,8,-1
 320 448 l 1,9,-1
 320 384 l 1,10,-1
 384 384 l 1,11,-1
 384 128 l 1,0,-1
EndSplineSet
EndChar

StartChar: i
Encoding: 105 105 76
Width: 192
GlyphClass: 2
Flags: W
LayerCount: 2
Fore
SplineSet
128 128 m 1,0,-1
 0 128 l 1,1,-1
 0 384 l 1,2,-1
 128 384 l 1,3,-1
 128 128 l 1,0,-1
0 512 m 1,4,-1
 128 512 l 1,5,-1
 128 448 l 1,6,-1
 0 448 l 1,7,-1
 0 512 l 1,4,-1
EndSplineSet
EndChar

StartChar: j
Encoding: 106 106 77
Width: 256
GlyphClass: 2
Flags: W
LayerCount: 2
Fore
SplineSet
128 64 m 1,0,-1
 0 64 l 1,1,-1
 0 128 l 1,2,-1
 64 128 l 1,3,-1
 64 384 l 1,4,-1
 192 384 l 1,5,-1
 192 128 l 1,6,-1
 128 128 l 1,7,-1
 128 64 l 1,0,-1
64 512 m 1,8,-1
 192 512 l 1,9,-1
 192 448 l 1,10,-1
 64 448 l 1,11,-1
 64 512 l 1,8,-1
EndSplineSet
EndChar

StartChar: k
Encoding: 107 107 78
Width: 448
GlyphClass: 2
Flags: W
LayerCount: 2
Fore
SplineSet
384 128 m 1,0,-1
 256 128 l 1,1,-1
 256 192 l 1,2,-1
 192 192 l 1,3,-1
 192 256 l 1,4,-1
 128 256 l 1,5,-1
 128 128 l 1,6,-1
 0 128 l 1,7,-1
 0 512 l 1,8,-1
 128 512 l 1,9,-1
 128 320 l 1,10,-1
 192 320 l 1,11,-1
 192 384 l 1,12,-1
 256 384 l 1,13,-1
 256 448 l 1,14,-1
 384 448 l 1,15,-1
 384 384 l 1,16,-1
 320 384 l 1,17,-1
 320 320 l 1,18,-1
 256 320 l 1,19,-1
 256 256 l 1,20,-1
 320 256 l 1,21,-1
 320 192 l 1,22,-1
 384 192 l 1,23,-1
 384 128 l 1,0,-1
EndSplineSet
EndChar

StartChar: l
Encoding: 108 108 79
Width: 256
GlyphClass: 2
Flags: W
LayerCount: 2
Fore
SplineSet
192 128 m 1,0,-1
 64 128 l 1,1,-1
 64 192 l 1,2,-1
 0 192 l 1,3,-1
 0 512 l 1,4,-1
 128 512 l 1,5,-1
 128 192 l 1,6,-1
 192 192 l 1,7,-1
 192 128 l 1,0,-1
EndSplineSet
EndChar

StartChar: m
Encoding: 109 109 80
Width: 576
GlyphClass: 2
Flags: W
LayerCount: 2
Fore
SplineSet
512 128 m 1,0,-1
 384 128 l 1,1,-1
 384 384 l 1,2,-1
 320 384 l 1,3,-1
 320 128 l 1,4,-1
 192 128 l 1,5,-1
 192 384 l 1,6,-1
 128 384 l 1,7,-1
 128 128 l 1,8,-1
 0 128 l 1,9,-1
 0 448 l 1,10,-1
 448 448 l 1,11,-1
 448 384 l 1,12,-1
 512 384 l 1,13,-1
 512 128 l 1,0,-1
EndSplineSet
EndChar

StartChar: n
Encoding: 110 110 81
Width: 448
GlyphClass: 2
Flags: W
LayerCount: 2
Fore
SplineSet
384 128 m 1,0,-1
 256 128 l 1,1,-1
 256 384 l 1,2,-1
 128 384 l 1,3,-1
 128 128 l 1,4,-1
 0 128 l 1,5,-1
 0 448 l 1,6,-1
 320 448 l 1,7,-1
 320 384 l 1,8,-1
 384 384 l 1,9,-1
 384 128 l 1,0,-1
EndSplineSet
EndChar

StartChar: o
Encoding: 111 111 82
Width: 448
GlyphClass: 2
Flags: W
LayerCount: 2
Fore
SplineSet
320 128 m 1,0,-1
 64 128 l 1,1,-1
 64 192 l 1,2,-1
 0 192 l 1,3,-1
 0 384 l 1,4,-1
 64 384 l 1,5,-1
 64 448 l 1,6,-1
 320 448 l 1,7,-1
 320 384 l 1,8,-1
 384 384 l 1,9,-1
 384 192 l 1,10,-1
 320 192 l 1,11,-1
 320 128 l 1,0,-1
128 192 m 1,12,-1
 256 192 l 1,13,-1
 256 384 l 1,14,-1
 128 384 l 1,15,-1
 128 192 l 1,12,-1
EndSplineSet
EndChar

StartChar: p
Encoding: 112 112 83
Width: 448
GlyphClass: 2
Flags: W
LayerCount: 2
Fore
SplineSet
128 64 m 1,0,-1
 0 64 l 1,1,-1
 0 448 l 1,2,-1
 320 448 l 1,3,-1
 320 384 l 1,4,-1
 384 384 l 1,5,-1
 384 192 l 1,6,-1
 320 192 l 1,7,-1
 320 128 l 1,8,-1
 128 128 l 1,9,-1
 128 64 l 1,0,-1
128 192 m 1,10,-1
 256 192 l 1,11,-1
 256 384 l 1,12,-1
 128 384 l 1,13,-1
 128 192 l 1,10,-1
EndSplineSet
EndChar

StartChar: q
Encoding: 113 113 84
Width: 448
GlyphClass: 2
Flags: W
LayerCount: 2
Fore
SplineSet
384 64 m 1,0,-1
 256 64 l 1,1,-1
 256 128 l 1,2,-1
 64 128 l 1,3,-1
 64 192 l 1,4,-1
 0 192 l 1,5,-1
 0 384 l 1,6,-1
 64 384 l 1,7,-1
 64 448 l 1,8,-1
 384 448 l 1,9,-1
 384 64 l 1,0,-1
128 192 m 1,10,-1
 256 192 l 1,11,-1
 256 384 l 1,12,-1
 128 384 l 1,13,-1
 128 192 l 1,10,-1
EndSplineSet
EndChar

StartChar: r
Encoding: 114 114 85
Width: 320
GlyphClass: 2
Flags: W
LayerCount: 2
Fore
SplineSet
128 128 m 1,0,-1
 0 128 l 1,1,-1
 0 384 l 1,2,-1
 64 384 l 1,3,-1
 64 448 l 1,4,-1
 256 448 l 1,5,-1
 256 384 l 1,6,-1
 128 384 l 1,7,-1
 128 128 l 1,0,-1
EndSplineSet
EndChar

StartChar: s
Encoding: 115 115 86
Width: 448
GlyphClass: 2
Flags: W
LayerCount: 2
Fore
SplineSet
320 128 m 1,0,-1
 0 128 l 1,1,-1
 0 192 l 1,2,-1
 256 192 l 1,3,-1
 256 256 l 1,4,-1
 64 256 l 1,5,-1
 64 320 l 1,6,-1
 0 320 l 1,7,-1
 0 384 l 1,8,-1
 64 384 l 1,9,-1
 64 448 l 1,10,-1
 320 448 l 1,11,-1
 320 384 l 1,12,-1
 128 384 l 1,13,-1
 128 320 l 1,14,-1
 320 320 l 1,15,-1
 320 256 l 1,16,-1
 384 256 l 1,17,-1
 384 192 l 1,18,-1
 320 192 l 1,19,-1
 320 128 l 1,0,-1
EndSplineSet
EndChar

StartChar: t
Encoding: 116 116 87
Width: 320
GlyphClass: 2
Flags: W
LayerCount: 2
Fore
SplineSet
256 128 m 1,0,-1
 128 128 l 1,1,-1
 128 192 l 1,2,-1
 64 192 l 1,3,-1
 64 384 l 1,4,-1
 0 384 l 1,5,-1
 0 448 l 1,6,-1
 64 448 l 1,7,-1
 64 512 l 1,8,-1
 192 512 l 1,9,-1
 192 448 l 1,10,-1
 256 448 l 1,11,-1
 256 384 l 1,12,-1
 192 384 l 1,13,-1
 192 192 l 1,14,-1
 256 192 l 1,15,-1
 256 128 l 1,0,-1
EndSplineSet
EndChar

StartChar: u
Encoding: 117 117 88
Width: 448
GlyphClass: 2
Flags: W
LayerCount: 2
Fore
SplineSet
320 128 m 1,0,-1
 64 128 l 1,1,-1
 64 192 l 1,2,-1
 0 192 l 1,3,-1
 0 448 l 1,4,-1
 128 448 l 1,5,-1
 128 192 l 1,6,-1
 256 192 l 1,7,-1
 256 448 l 1,8,-1
 384 448 l 1,9,-1
 384 192 l 1,10,-1
 320 192 l 1,11,-1
 320 128 l 1,0,-1
EndSplineSet
EndChar

StartChar: v
Encoding: 118 118 89
Width: 448
GlyphClass: 2
Flags: W
LayerCount: 2
Fore
SplineSet
256 128 m 1,0,-1
 128 128 l 1,1,-1
 128 192 l 1,2,-1
 64 192 l 1,3,-1
 64 256 l 1,4,-1
 0 256 l 1,5,-1
 0 448 l 1,6,-1
 128 448 l 1,7,-1
 128 256 l 1,8,-1
 256 256 l 1,9,-1
 256 448 l 1,10,-1
 384 448 l 1,11,-1
 384 256 l 1,12,-1
 320 256 l 1,13,-1
 320 192 l 1,14,-1
 256 192 l 1,15,-1
 256 128 l 1,0,-1
EndSplineSet
EndChar

StartChar: w
Encoding: 119 119 90
Width: 576
GlyphClass: 2
Flags: W
LayerCount: 2
Fore
SplineSet
448 128 m 1,0,-1
 64 128 l 1,1,-1
 64 192 l 1,2,-1
 0 192 l 1,3,-1
 0 448 l 1,4,-1
 128 448 l 1,5,-1
 128 192 l 1,6,-1
 192 192 l 1,7,-1
 192 384 l 1,8,-1
 320 384 l 1,9,-1
 320 192 l 1,10,-1
 384 192 l 1,11,-1
 384 448 l 1,12,-1
 512 448 l 1,13,-1
 512 192 l 1,14,-1
 448 192 l 1,15,-1
 448 128 l 1,0,-1
EndSplineSet
EndChar

StartChar: x
Encoding: 120 120 91
Width: 448
GlyphClass: 2
Flags: W
LayerCount: 2
Fore
SplineSet
384 128 m 1,0,-1
 256 128 l 1,1,-1
 256 192 l 1,2,-1
 128 192 l 1,3,-1
 128 128 l 1,4,-1
 0 128 l 1,5,-1
 0 192 l 1,6,-1
 64 192 l 1,7,-1
 64 256 l 1,8,-1
 128 256 l 1,9,-1
 128 320 l 1,10,-1
 64 320 l 1,11,-1
 64 384 l 1,12,-1
 0 384 l 1,13,-1
 0 448 l 1,14,-1
 128 448 l 1,15,-1
 128 384 l 1,16,-1
 256 384 l 1,17,-1
 256 448 l 1,18,-1
 384 448 l 1,19,-1
 384 384 l 1,20,-1
 320 384 l 1,21,-1
 320 320 l 1,22,-1
 256 320 l 1,23,-1
 256 256 l 1,24,-1
 320 256 l 1,25,-1
 320 192 l 1,26,-1
 384 192 l 1,27,-1
 384 128 l 1,0,-1
EndSplineSet
EndChar

StartChar: y
Encoding: 121 121 92
Width: 448
GlyphClass: 2
Flags: W
LayerCount: 2
Fore
SplineSet
320 64 m 1,0,-1
 64 64 l 1,1,-1
 64 128 l 1,2,-1
 256 128 l 1,3,-1
 256 192 l 1,4,-1
 64 192 l 1,5,-1
 64 256 l 1,6,-1
 0 256 l 1,7,-1
 0 448 l 1,8,-1
 128 448 l 1,9,-1
 128 256 l 1,10,-1
 256 256 l 1,11,-1
 256 448 l 1,12,-1
 384 448 l 1,13,-1
 384 128 l 1,14,-1
 320 128 l 1,15,-1
 320 64 l 1,0,-1
EndSplineSet
EndChar

StartChar: z
Encoding: 122 122 93
Width: 448
GlyphClass: 2
Flags: W
LayerCount: 2
Fore
SplineSet
192 192 m 1,0,-1
 384 192 l 1,1,-1
 384 128 l 1,2,-1
 0 128 l 1,3,-1
 0 192 l 1,4,-1
 64 192 l 1,5,-1
 64 256 l 1,6,-1
 128 256 l 1,7,-1
 128 320 l 1,8,-1
 192 320 l 1,9,-1
 192 384 l 1,10,-1
 0 384 l 1,11,-1
 0 448 l 1,12,-1
 384 448 l 1,13,-1
 384 384 l 1,14,-1
 320 384 l 1,15,-1
 320 320 l 1,16,-1
 256 320 l 1,17,-1
 256 256 l 1,18,-1
 192 256 l 1,19,-1
 192 192 l 1,0,-1
EndSplineSet
EndChar

StartChar: braceleft
Encoding: 123 123 94
Width: 320
GlyphClass: 2
Flags: W
LayerCount: 2
Fore
SplineSet
256 64 m 1,0,-1
 128 64 l 1,1,-1
 128 128 l 1,2,-1
 64 128 l 1,3,-1
 64 256 l 1,4,-1
 0 256 l 1,5,-1
 0 384 l 1,6,-1
 64 384 l 1,7,-1
 64 512 l 1,8,-1
 128 512 l 1,9,-1
 128 576 l 1,10,-1
 256 576 l 1,11,-1
 256 512 l 1,12,-1
 192 512 l 1,13,-1
 192 384 l 1,14,-1
 128 384 l 1,15,-1
 128 256 l 1,16,-1
 192 256 l 1,17,-1
 192 128 l 1,18,-1
 256 128 l 1,19,-1
 256 64 l 1,0,-1
EndSplineSet
EndChar

StartChar: bar
Encoding: 124 124 95
Width: 192
GlyphClass: 2
Flags: W
LayerCount: 2
Fore
SplineSet
128 64 m 1,0,-1
 0 64 l 1,1,-1
 0 576 l 1,2,-1
 128 576 l 1,3,-1
 128 64 l 1,0,-1
EndSplineSet
EndChar

StartChar: braceright
Encoding: 125 125 96
Width: 320
GlyphClass: 2
Flags: W
LayerCount: 2
Fore
SplineSet
128 64 m 1,0,-1
 0 64 l 1,1,-1
 0 128 l 1,2,-1
 64 128 l 1,3,-1
 64 256 l 1,4,-1
 128 256 l 1,5,-1
 128 384 l 1,6,-1
 64 384 l 1,7,-1
 64 512 l 1,8,-1
 0 512 l 1,9,-1
 0 576 l 1,10,-1
 128 576 l 1,11,-1
 128 512 l 1,12,-1
 192 512 l 1,13,-1
 192 384 l 1,14,-1
 256 384 l 1,15,-1
 256 256 l 1,16,-1
 192 256 l 1,17,-1
 192 128 l 1,18,-1
 128 128 l 1,19,-1
 128 64 l 1,0,-1
EndSplineSet
EndChar

StartChar: asciitilde
Encoding: 126 126 97
Width: 512
GlyphClass: 2
Flags: W
LayerCount: 2
Fore
SplineSet
384 256 m 1,0,-1
 192 256 l 1,1,-1
 192 320 l 1,2,-1
 128 320 l 1,3,-1
 128 256 l 1,4,-1
 0 256 l 1,5,-1
 0 320 l 1,6,-1
 64 320 l 1,7,-1
 64 384 l 1,8,-1
 256 384 l 1,9,-1
 256 320 l 1,10,-1
 320 320 l 1,11,-1
 320 384 l 1,12,-1
 448 384 l 1,13,-1
 448 320 l 1,14,-1
 384 320 l 1,15,-1
 384 256 l 1,0,-1
EndSplineSet
EndChar

StartChar: exclamdown
Encoding: 161 161 98
Width: 192
GlyphClass: 2
Flags: W
LayerCount: 2
Fore
SplineSet
0 380 m 1,0,-1
 128 380 l 1,1,-1
 128 316 l 1,2,-1
 0 316 l 1,3,-1
 0 380 l 1,0,-1
128 1 m 1,4,-1
 0 1 l 1,5,-1
 0 257 l 1,6,-1
 128 257 l 1,7,-1
 128 1 l 1,4,-1
EndSplineSet
EndChar

StartChar: cent
Encoding: 162 162 99
Width: 448
GlyphClass: 2
Flags: W
LayerCount: 2
Fore
SplineSet
383 128 m 1,0,-1
 255 128 l 1,1,-1
 255 60 l 1,2,-1
 188 60 l 1,3,-1
 188 128 l 1,4,-1
 64 128 l 1,5,-1
 64 192 l 1,6,-1
 0 192 l 1,7,-1
 0 384 l 1,8,-1
 64 384 l 1,9,-1
 64 448 l 1,10,-1
 190 448 l 1,11,-1
 190 522 l 1,12,-1
 255 522 l 1,13,-1
 255 448 l 1,14,-1
 383 448 l 1,15,-1
 383 384 l 1,16,-1
 447 384 l 1,17,-1
 447 320 l 1,18,-1
 319 320 l 1,19,-1
 319 384 l 1,20,-1
 128 384 l 1,21,-1
 128 192 l 1,22,-1
 189 192 l 1,23,-1
 189 383 l 1,24,-1
 256 383 l 1,25,-1
 255 192 l 1,26,-1
 319 192 l 1,27,-1
 319 256 l 1,28,-1
 447 256 l 1,29,-1
 447 192 l 1,30,-1
 383 192 l 1,31,-1
 383 128 l 1,0,-1
EndSplineSet
EndChar

StartChar: brokenbar
Encoding: 166 166 100
Width: 192
GlyphClass: 2
Flags: W
LayerCount: 2
Fore
SplineSet
128 256 m 1,0,-1
 128 0 l 1,1,-1
 0 0 l 1,2,-1
 0 256 l 1,3,-1
 128 256 l 1,0,-1
0 384 m 1,4,-1
 0 626 l 1,5,-1
 128 626 l 1,6,-1
 128 384 l 1,7,-1
 0 384 l 1,4,-1
EndSplineSet
EndChar

StartChar: periodcentered
Encoding: 183 183 101
Width: 192
GlyphClass: 2
Flags: WO
LayerCount: 2
Fore
SplineSet
128 292 m 1,0,-1
 0 292 l 1,1,-1
 0 420 l 1,2,-1
 128 420 l 1,3,-1
 128 292 l 1,0,-1
EndSplineSet
EndChar
